<?xml version="1.0" encoding="UTF-8"?>
<svg viewBox="0 0 151 26" version="1.1" xmlns="http://www.w3.org/2000/svg" xmlns:xlink="http://www.w3.org/1999/xlink">
    <!-- Generator: Sketch 50.2 (55047) - http://www.bohemiancoding.com/sketch -->
    <desc>Created with Sketch.</desc>
    <defs></defs>
    <g id="Symbols" stroke="none" stroke-width="1" fill-rule="evenodd">
        <g id="header-(temp)" transform="translate(-79.000000, -36.000000)" fill-rule="nonzero">
            <g id="Header">
                <g id="logo_gr1d_black_2018_04_26" transform="translate(79.111111, 36.000000)">
                    <g id="Group">
                        <path d="M12.9290617,22.8204099 C12.3536914,22.8204099 11.8869753,23.2900248 11.8869753,23.8667081 C11.8869753,24.4417764 12.3536914,24.9097764 12.9290617,24.9097764 C13.4975309,24.9097764 13.962321,24.4417764 13.962321,23.8667081 C13.962321,23.2900248 13.4975309,22.8204099 12.9290617,22.8204099 Z" id="Shape"></path>
                        <path d="M3.15290123,12.9812671 C3.15290123,12.4071677 2.68859259,11.9396522 2.11466667,11.9396522 C1.54651852,11.9396522 1.08140741,12.4073292 1.08140741,12.9812671 C1.08140741,13.5587578 1.54635802,14.0262733 2.11466667,14.0262733 C2.68859259,14.0262733 3.15290123,13.5587578 3.15290123,12.9812671 Z" id="Shape"></path>
                        <path d="M22.7975062,12.9812671 C22.7975062,13.5587578 23.2624568,14.0262733 23.8368642,14.0262733 C24.4095062,14.0262733 24.8738148,13.5587578 24.8738148,12.9812671 C24.8738148,12.4071677 24.4095062,11.9396522 23.8368642,11.9396522 C23.2624568,11.9396522 22.7975062,12.4073292 22.7975062,12.9812671 Z" id="Shape"></path>
                        <path d="M2.11466667,21.8296646 C0.999555556,21.8296646 0.0930864198,22.741764 0.0930864198,23.8665466 C0.0930864198,24.9900373 0.999395062,25.9010062 2.11466667,25.9010062 C3.23282716,25.9010062 4.14058025,24.9900373 4.14058025,23.8665466 C4.14058025,22.7419255 3.23282716,21.8296646 2.11466667,21.8296646 Z" id="Shape"></path>
                        <path d="M23.8367037,21.8296646 C22.7195062,21.8296646 21.8104691,22.741764 21.8104691,23.8665466 C21.8104691,24.9900373 22.7195062,25.9010062 23.8367037,25.9010062 C24.9521358,25.9010062 25.8616543,24.9900373 25.8616543,23.8665466 C25.8618148,22.7419255 24.9522963,21.8296646 23.8367037,21.8296646 Z" id="Shape"></path>
                        <path d="M12.9290617,3.15859627 C13.4975309,3.15859627 13.962321,2.68768944 13.962321,2.11423602 C13.962321,1.5373913 13.4975309,1.06906832 12.9290617,1.06906832 C12.3536914,1.06906832 11.8869753,1.53722981 11.8869753,2.11423602 C11.8868148,2.68768944 12.3536914,3.15859627 12.9290617,3.15859627 Z" id="Shape"></path>
                        <path d="M2.11466667,0.0757391304 C0.999555556,0.0757391304 0.0930864198,0.990745342 0.0930864198,2.11213665 C0.0930864198,3.23756522 0.999395062,4.14918012 2.11466667,4.14918012 C3.23282716,4.14918012 4.14058025,3.23740373 4.14058025,2.11213665 C4.14058025,0.990745342 3.23282716,0.0757391304 2.11466667,0.0757391304 Z" id="Shape"></path>
                        <path d="M23.8367037,4.14934161 C24.9521358,4.14934161 25.8616543,3.23756522 25.8616543,2.11229814 C25.8616543,0.990906832 24.9521358,0.0759006211 23.8367037,0.0759006211 C22.7195062,0.0759006211 21.8104691,0.990906832 21.8104691,2.11229814 C21.8104691,3.23756522 22.7196667,4.14934161 23.8367037,4.14934161 Z" id="Shape"></path>
                        <path d="M13.3622346,10.9469689 C12.2442346,10.9469689 11.336963,11.8592298 11.336963,12.9814286 C11.336963,14.1041118 12.2442346,15.019118 13.3622346,15.019118 C14.4746173,15.019118 15.3826914,14.1041118 15.3826914,12.9814286 C15.3826914,11.8592298 14.4746173,10.9469689 13.3622346,10.9469689 Z" id="Shape"></path>
                    </g>
                    <path d="M58.8892849,12.4849864 L51.5086434,12.4849864 C50.8956902,12.4849864 50.3980898,12.9949369 50.3980898,13.6235114 C50.3980898,14.2525829 50.8956902,14.7625334 51.5086434,14.7625334 L57.7790544,14.7625334 L57.7790544,20.5088372 L54.6440105,23.7226187 L48.3391875,23.7226187 L45.2209456,20.5259018 L45.2209456,6.57416648 L48.3797387,3.27605585 L54.7010406,3.27605585 L58.0375481,6.82682227 C58.4632549,7.28027728 59.1663578,7.29303432 59.6077358,6.85647826 C60.0494369,6.4205849 60.0623616,5.69989463 59.6368163,5.24693665 L55.9721834,1.34775377 C55.7637729,1.12409127 55.474583,1 55.1735994,1 L47.9136422,1 C47.6158898,1 47.3305773,1.12193748 47.121359,1.339967 L43.3184319,5.31039053 C43.1148681,5.52262139 43,5.80990344 43,6.10812011 L43,20.9977468 C43,21.2996083 43.1172915,21.5895412 43.3257021,21.8024348 L47.0935709,25.6663287 C47.3014968,25.880879 47.5839012,26 47.878584,26 L55.1041292,26 C55.398489,26 55.6812164,25.880879 55.889627,25.6663287 L59.6746211,21.7861985 C59.88287,21.5709855 60,21.2810526 60,20.9791911 L60,13.6235114 C60,12.9949369 59.5030459,12.4849864 58.8892849,12.4849864 Z" id="Shape"></path>
                    <path d="M86.1024531,1.33209527 C85.8960255,1.12110738 85.6148983,1 85.3225261,1 L74.1047494,1 C73.4944625,1 73,1.50855187 73,2.13606323 L73,24.8644324 C73,25.492109 73.4944625,26 74.1047494,26 C74.7143937,26 75.2085349,25.492109 75.2085349,24.8644324 L75.2085349,14.5498176 L85.0275835,14.5498176 L87.7917864,17.3912975 L87.7917864,24.8642672 C87.7917864,25.4919438 88.2862489,25.9998348 88.8962145,25.9998348 C89.5052162,25.9998348 90,25.4919438 90,24.8642672 L90,16.9207465 C90,16.6203738 89.8838543,16.3322275 89.6761415,16.1184308 L86.9241476,13.2878556 L89.6767841,10.4572803 C89.8838543,10.2426576 90,9.95583298 90,9.65479935 L90,5.81125093 C90,5.5102173 89.8838543,5.22124485 89.6761415,5.00810907 L86.1024531,1.33209527 Z M87.7917864,9.18358755 L84.7834045,12.2780216 L75.2083743,12.2780216 L75.2083743,3.27080469 L84.8645298,3.27080469 L87.7916257,6.28213228 L87.7916257,9.18358755 L87.7917864,9.18358755 Z" id="Shape"></path>
                    <path d="M149.674356,5.25907371 L145.908573,1.40603786 C145.701242,1.19592645 145.421402,1.07538973 145.1291,1.07389958 L134.11936,1.00005428 C133.821555,0.997073972 133.538478,1.11694841 133.328557,1.33053683 C133.117666,1.54495312 133,1.83453929 133,2.13770239 L133,24.8606962 C133,25.4897058 133.497691,26 134.112077,26 L145.154996,26 C145.450212,26 145.732318,25.878801 145.941105,25.665047 L149.673709,21.8474436 C149.88282,21.6343519 150,21.3439379 150,21.0422649 L150,6.06325897 C150,5.76158602 149.88282,5.47266214 149.674356,5.25907371 Z M147.775199,20.571377 L144.693721,23.7223857 L135.224801,23.7223857 L135.224801,3.28313242 L144.657952,3.34588437 L147.775199,6.53497481 L147.775199,20.571377 Z" id="Shape"></path>
                    <path d="M118.890293,23.7286116 L112.730046,23.7286116 L112.730046,2.13661472 C112.730046,1.67694668 112.459646,1.26225335 112.045162,1.0861575 C111.630354,0.910888393 111.152389,1.0079478 110.835307,1.33252634 L103.407862,8.93573338 C102.973994,9.37870125 102.973994,10.0994541 103.407862,10.5422566 C103.841407,10.9865473 104.544544,10.9865473 104.978412,10.5422566 L110.509825,4.88040302 L110.509825,23.7284462 L104.110838,23.7284462 C103.497511,23.7284462 103,24.2367266 103,24.8645538 C103,25.4917196 103.497511,26 104.110838,26 L118.890455,26 C119.503136,26 120,25.4917196 120,24.8645538 C119.999838,24.2370573 119.502813,23.7286116 118.890293,23.7286116 Z" id="Shape"></path>
                </g>
            </g>
        </g>
    </g>
</svg>